<?xml version="1.0" encoding="UTF-8"?>
<!DOCTYPE svg  PUBLIC '-//W3C//DTD SVG 1.1//EN'  'http://www.w3.org/Graphics/SVG/1.1/DTD/svg11.dtd'>
<svg enable-background="new 0 0 1129.512 1681.422" version="1.1" viewBox="0 0 1129.512 1681.422" xml:space="preserve" xmlns="http://www.w3.org/2000/svg">
	<path d="m1040.9 331c0.055 3.897 0.11 7.795 0.165 11.693-0.055 1.834-0.157 3.667-0.158 5.501-9e-3 41.169-7e-3 82.337-7e-3 123.51v5.056h-45.69v-16.732h-16.231v-44.872h28.426v16.139h4.513v-21.078h-38.483v16.751h-16.351v21.113h5.034v-16.116h11.71v49.71h5.087v-16.116h11.887v50.353h16.639v32.941h4.46v-38.491h-16.095v-27.987h44.905v28.093h-11.666v-16.401h-21.731c0.076 1.704 0.143 3.192 0.218 4.893h16.372v61.896h-62.067v-16.621h-33.359v-28.672h16.355v-38.552h-16.632v-16.521h-4.938v16.638h-16.529v4.938h33.157v28.669h-16.333v55.035h21.28v-4.782h-16.34v-11.545h28.512v33.456h16.801v16.457h4.595v-21.606h-16.296v-11.493h44.934v28.128h-11.723v-16.276h-4.939v33.478h-16.818v16.814h-16.814v16.814h-16.815v16.814h-50.408v16.815h-16.311v21.598c1.695-0.106 3.083-0.193 4.849-0.303v-16.776h16.824v-16.274h28.116v11.789h-16.734v16.816h-16.815v16.814h-33.612v16.17h-28.671v-33.562h-33.612v-16.64h-66.85v-66.664h-5.262v16.592h-33.28v16.64h-16.814v16.814h-16.58v55.12h4.755v-16.63h16.81v-16.814h16.814v-16.804h16.542v-4.673h-21.583v16.638h-16.813v16.501h-11.548v-28.512h16.659v-16.814h16.815v-16.425h28.268v11.723h-16.277v4.939h16.681v33.615h33.18v45.45h-49.849v4.938h16.69v16.819h33.593v16.359h4.505v-21.633h-33.029v-11.399h62.135v16.567c1.784-0.092 3.171-0.163 4.938-0.254v-16.791h16.329v-21.27h-38.293c0.091 1.689 0.166 3.075 0.261 4.84h33.092v11.376h-44.848v-44.842h28.035v11.763h-16.577c0.13 1.78 0.232 3.172 0.361 4.939h50.355v33.62h16.242v11.872h-33.537v16.817h-16.812v16.179h-11.696v-32.909h-5.089v33.368h-32.988v5.085h16.118v11.71h-32.915v5.087h16.118v11.887h-16.758v16.153h-44.792v-28.449h16.082v-5.087h-16.76v-33.629h-33.435v-16.465h-33.439v-16.592h-21.755v50.219h-16.815v33.612h-33.333v21.478h4.77v-16.364h45.466v16.337h38.552v-16.652h33.265v-38.192h-38.403v16.655h-33.234v4.938h16.658v16.449h4.938v-16.669h16.816v-16.421h28.266v28.119h-11.727v-16.266h-4.939v16.685h-16.819v16.368h-28.671v-16.699h-16.328v-28.672h16.71v-49.883h11.874v16.722h33.051v11.873h-32.972v21.591c1.709-0.141 3.102-0.256 4.87-0.403v-16.172h62.102v83.341h5.087v-16.154h28.091v11.802h-16.746v16.816h-16.815v16.159h-28.493v-16.097h-5.087v16.095h-28.687v-16.085h-21.58v16.235h-28.496v-16.391h-21.534v21.537c1.713-0.082 3.201-0.153 4.899-0.234v-16.364h11.718v16.624h16.805v33.37h4.938v-33.431h16.809v-16.545h11.873v16.64h50.102v11.873h-16.653v16.815h-16.814v50.408h-16.815v16.417h-28.655v-16.28h-4.938v33.076h-28.658v-66.668h-4.938v16.664h-33.219v4.939h16.283v28.674h-16.261v55.349h16.243v28.652h-16.244v4.506h38.432v-16.696h33.611v-33.592h16.673c-0.093-1.784-0.165-3.175-0.233-4.477h-21.755v16.685h-33.457c0.087 1.778 0.156 3.168 0.243 4.936h33.11v11.88h-33.506v16.295h-11.872v-33.52h-16.258v-28.647h16.58c-0.139-1.778-0.248-3.171-0.385-4.936h-16.194v-11.884h16.733v-33.015h11.873v50.339h16.182v11.696h-32.91v4.483h38.485v-16.757h16.815v-16.143h27.984v11.654h-16.075v5.09h16.075v28.513h-16.43v50.031h-28.457v-11.669h16.607c-0.091-1.9-0.161-3.389-0.225-4.728h-21.537v16.388h-62.265v-16.627h-16.545v-28.39h11.699v16.349h21.46v-4.776h-16.352v-79.048h16.351v-4.938h-16.35v-45.467h16.649v-66.868h11.873v50.255h33.238v11.873h-33.472v16.799h-16.41v4.552h21.621v-16.264h28.671v16.246h38.55v-33.026h11.395v45.359h-49.819v38.394c1.682-0.091 3.073-0.166 4.843-0.262v-33.09h28.658v16.563c1.778-0.099 3.169-0.177 4.938-0.276v-16.786h16.822v-50.386h16.663c-0.111-1.783-0.198-3.172-0.277-4.443h-38.545v32.985h-28.672v-33.524h-33.041v-45.468h33.535v-16.205h11.697v32.927h5.09v-16.13h45.306v16.129h5.087v-16.741h16.825v-16.174h11.695v32.905h4.477v-37.846h-21.7v16.097h-62.265v-16.078h-21.578v16.234h-28.289v-45.268h16.619v-33.365h11.864v33.185h4.937v-66.779h11.86v33.185h4.938v-50.229h16.81v-33.612h16.815v-16.803h16.524v-4.937h-16.357v-11.871h16.648v-16.815h16.814v-16.814h16.814v-16.814h16.814v-16.815h16.814v-33.178h28.672v16.695h33.611v16.815h16.314v28.672h-16.213v38.395c1.695-0.107 3.083-0.194 4.849-0.305v-16.754h16.672c-0.105-1.784-0.187-3.172-0.291-4.936h-16.275v-11.882h16.718v-33.613h16.815v-33.041h78.479v28.597h-16.745v16.814h-33.612v16.815h-16.151v37.875h21.201v-21.022h-5.05v16.08h-11.201v-28.102h45.078v33.034h5.263v-16.592h16.482v-16.642h16.814v-16.807h16.594v-4.938h-16.621v-50.387c-1.901 0.09-3.389 0.161-5.087 0.241v66.969h-16.659v16.575h-11.873v-16.63h-33.335v-11.873h33.439v-16.502h11.861v16.341h4.635v-55.189h-16.322v-28.658h33.125v-4.938h-16.659v-33.611h-16.801v-16.466h-4.938v33.461h-16.467v38.199h4.794v-33.462h16.814v-16.437h11.485v28.533h-16.68v33.182h-45.468v-50.287h-16.796v-16.351h-4.499v21.637h16.227v44.983h-28.564v-16.712h-16.814v-33.612h-16.815v-16.814h-16.79v-16.657c-1.783 0.143-3.173 0.254-4.938 0.396v16.752h-16.245v21.335h21.089v-5.019h-16.148v-11.291h28.6v66.693h21.132v-5.03h-16.131v-44.856h11.812v33.554h16.639v32.946h5.085v-16.1h11.228v27.947h-28.628v-16.601h-33.262v-16.64h-33.605v-16.799c-1.906 0.088-3.39 0.157-5.087 0.235v50.17h-16.659v16.814h-16.814v16.555h-11.602v-28.494h16.64v-33.302h11.861v16.344h4.937v-100.33h11.872v50.246h33.266v11.859h-16.318v4.604h21.256v-21.602h-33.088v-95.471h28.532v16.265h21.755v-16.248h79.062v16.249h21.293v-4.83h-16.696v-67.211h-16.331v-79.041h33.354c-0.089-1.778-0.16-3.168-0.249-4.939h-16.308v-28.679h16.713v-16.288h28.648v33.371c1.779-0.12 3.17-0.214 4.938-0.333v-66.631h45.478v16.727h16.245v28.672h-16.74v83.827h-33.002v5.087h32.935v28.685h-16.75v33.435h-49.767v5.087h49.71v28.686h-16.282v21.096h5.042v-16.751h16.829v-67.206h16.814v-83.822h16.112v-5.087h-16.074v-28.513h16.43v-16.634h16.799c-0.083-1.898-0.148-3.386-0.222-5.087h-16.57v-16.659h-16.815v-16.814h-33.603v-16.582h-4.938v16.394h-28.667v-33.426h-16.805v-33.347h-4.681v38.378h16.635v33.612h16.507v28.351h-45.306v-33.454h-16.801v-33.261h-4.938v33.462h-33.612v16.815h-16.815v16.411h-28.671v-33.051h-21.33v54.791h4.82v-49.851h11.878v33.034h38.553v-16.682h50.266c-0.086-1.778-0.154-3.168-0.24-4.937h-33.122v-11.397h45.36v33.506h16.292v11.873h-32.997v21.598c1.702-0.12 3.091-0.217 4.854-0.341v-16.228h11.337v28.584h-33.53v16.79h-16.654c0.148 1.783 0.263 3.173 0.41 4.938h16.17v28.092h-45.221v-32.939h-5.087v32.938h-45.306v-16.14h-4.515v21.677h16.745v66.58h21.756v-16.758h32.947v-21.756h-16.772v-16.284h-21.208v21.176h4.879v-16.227h11.716v16.601h16.596v11.873h-33.42v16.559h-11.606v-62.086h83.826v-50.104h11.873v83.84h16.473v28.658h-16.319v4.937h16.319v11.519h-78.545v-11.727h33.468v-50.005h11.856v49.871h4.939v-16.665h16.42v-4.938h-16.678v-33.222h-38.151v4.81h16.279v45.471h-33.479v33.174h-11.873v-16.696h-33.612v-33.612h-16.314v-28.156h11.754v16.569c1.78-0.111 3.171-0.198 4.445-0.277v-21.749h-16.718v-33.612h-16.259v-45.444h16.58c-0.138-1.779-0.246-3.171-0.383-4.938h-16.731v-16.671c-1.779 0.132-3.17 0.236-4.936 0.367v33.008h-11.884v-16.732h-16.816v-16.815h-16.639v-32.998h-5.085v16.136h-11.886v-16.75h-16.177v-28.671h16.764v-16.136h28.672v16.601h16.464v33.237h21.732c-0.076-1.703-0.141-3.191-0.217-4.892h-16.373v-45.306h16.601c-0.086-1.906-0.152-3.392-0.228-5.087h-16.372v-28.509h50.196c-0.087-1.9-0.155-3.388-0.232-5.087h-100.56v-16.659h-33.604v-16.599h-4.938v33.203h-45.455v-16.404h-4.938v16.628h-16.571v38.552h16.63v16.547h21.49v-4.766h-16.631v-33.354h-4.938v16.382h-11.601v-28.211h78.592v28.489h-16.352v4.651h21.291v-38.382h-16.327v-11.538h28.515v16.662h16.815v16.442h21.375v-4.802h-16.296v-11.487h28.132v44.92h-11.743v-16.688h-33.594v-16.369h-4.938v33.489h-16.818v33.144h-11.873v-16.703h-16.312v-11.852h16.566c-0.103-1.779-0.184-3.17-0.287-4.939h-16.783v-16.821h-16.284v-11.85h33.371c-0.121-1.78-0.216-3.172-0.302-4.431h-38.009v21.664h16.169v28.099h-78.983v-50.335h-16.204v-28.671h16.116v-37.9h-38.5v66.48h-28.492v-49.674h-5.087v32.876h-28.69v-16.244h-38.003v21.348h21.532c-0.077-1.705-0.143-3.193-0.22-4.893h-16.374v-11.505h28.475v16.621h16.806v16.577h4.937v-16.394h11.868v49.96h21.487v-21.313h-4.766v16.374h-11.591v-28.497h33.44v-50.397h16.507v-4.937h-16.345v-11.552h28.177v28.514h-16.302v38.552h16.284v28.656h-16.288v4.937h16.288v11.476h-28.123v-28.523h16.269v-4.538h-21.625v33.482h-33.612v16.358h-61.795v-45.336h16.565c-0.086-1.778-0.154-3.168-0.218-4.484h-38.556v16.217h-28.65v-33.356c-1.784 0.093-3.171 0.165-4.938 0.257v16.792h-16.822v33.611h-33.612v16.815h-33.611v16.815h-16.231v37.955h21.685v-16.75h16.354v-21.116h-5.035v16.745h-16.826v16.161h-11.212v-28.623h16.772v-16.634h100.09v-5.087h-16.585v-16.135h-5.088v16.08h-44.966v-11.488h33.405v-33.405h11.873v16.388h38.551v-16.371h11.873v50.229h33.318v11.873h-33.446v16.802h-50.088v4.937h33.133v11.872h-16.657v16.801h-50.06v4.938h16.65v33.274h4.939v-33.119h28.658v33.118h4.937v-16.322h11.873v50.258h16.436v45.468h-16.676v100.38h-45.451v-16.265h-4.534v21.626h33.483v33.612h16.353v28.671h-16.704v16.313h-28.65v-16.565c-1.778 0.103-3.169 0.184-4.938 0.286v16.278h-45.455v-16.567c-1.785 0.105-3.172 0.188-4.938 0.292v33.07h-28.68v-16.207h-21.598c0.112 1.698 0.204 3.087 0.321 4.852h16.771v16.824h33.588v33.459c1.779-0.128 3.171-0.228 4.939-0.355v-16.22h45.478v32.983h21.593c-0.132-1.704-0.24-3.096-0.377-4.864h-16.755v-49.871h-38.389c0.134 1.705 0.243 3.097 0.381 4.862h32.989v11.313h-44.803v-27.998h78.993v33.547h16.815v16.162h21.755v-16.089h28.672v16.246h21.405v-16.611h16.814v-16.807h16.595v-4.938h-66.794v-28.666h33.422v-16.55h28.662v16.374h4.938v-33.428h16.557v-4.938h-16.38v-62.252h16.379v-4.686h-21.579v16.633h-16.814v16.803h-16.526v4.658h21.587v-16.34h11.559v45.293h-16.339v4.937h16.339v11.545h-45.31v-16.659h-16.814v-16.814h-16.421v-28.655h16.283v-4.557h-21.222v38.416h16.259v28.671h-16.691v33.612h-16.358v21.608c1.673-0.077 3.063-0.141 4.833-0.223v-16.801h16.821v-33.612h16.813v-16.295h11.873v16.72h16.26v11.873h-32.951v38.551h49.732v11.873h-16.748v16.174h-11.873v-16.762h-33.435v-16.132h-5.084v32.885h-11.89v-16.772h-16.286v-45.118h16.611v-33.604h16.799c-0.089-1.9-0.158-3.389-0.237-5.087h-33.163v-28.294h11.671v16.405h4.938v-100.39h28.658v33.199h4.938v-33.426h33.606v-16.806h16.574v-4.938h-33.186v-45.455h16.387v-4.698h-21.575v33.417h-16.566v4.938h16.636v16.81h16.538v11.585h-61.794v-11.693h33.147v-4.939h-16.639v-66.914h-4.937v16.358h-11.569v-28.19h44.978v11.714h-16.321v38.21h4.791v-33.117h45.469v16.664h16.814v16.815h16.407v62.248h-16.272v4.543h21.621v-49.854h11.873v16.691h16.815v83.983h16.622v11.528h-16.946v67.509h-16.81v33.154h-11.408v-45.353h16.217v-38.549h-16.203v-28.148h11.755v16.57c1.784-0.114 3.173-0.203 4.464-0.285v-88.77c-1.68 0.087-3.071 0.159-4.84 0.251v33.587h-50.413v16.812h-16.811v16.28h-11.333v-44.825h11.764v16.578c1.78-0.134 3.172-0.238 4.939-0.371v-16.757h16.824v-16.813h16.227v-38.546h-32.933v-11.696h16.133v-4.508h-21.073v21.686h32.919v28.669h-16.759v16.812h-33.609v32.923h-28.489v-32.873h-4.431v38.497h32.874v28.488h-16.07v5.088h16.764v16.654h16.457v16.267h5.262v-16.586h16.121v-5.087h-32.868v-28.511h16.43v-16.639h16.813v-16.586h45.228v28.48h-16.367v38.549h16.352v28.669h-16.643v33.291h-28.657v-16.337h-4.937v16.642h-33.304v4.936h66.739v28.667h-16.649v16.813h-16.813v16.453h-45.451v-16.308h-4.937v33.107h-45.101v-11.711h33.102v-4.937h-33.464v-16.814h-16.797v-33.234h-4.579v38.407h16.285v28.275h-45.329v-16.678h-16.385v-11.854h16.26v-4.529h-21.627v16.249h-28.669v-16.693h-16.34v-11.852h16.564c-0.086-1.779-0.152-3.169-0.238-4.938h-33.593v-16.82h-16.813v-16.813h-16.79v-67.049c-1.777 0.102-3.167 0.181-4.934 0.282v33.08h-11.374v-112.55h16.716v-33.609h33.609v-33.049h28.669v16.736h16.217v28.67h-16.128v21.122h54.823v-21.056h-5.036v16.12h-44.841v-11.817h16.101v-38.552h-16.086v-28.49h16.078v-5.086h-16.759v-49.73h-21.577v16.424h-16.268v4.587h21.531v-16.235h11.497v45.254h-16.6c0.085 1.898 0.152 3.386 0.228 5.086h16.375v11.716h-33.412v16.581h-28.66v-49.993h-4.716v55.16h33.182v11.871h-33.425v16.803h-16.558v4.936h16.382v11.868h-16.633v67.142h-16.581v-11.856h4.975v-117.28h11.852v33.366c1.784-0.111 3.174-0.198 4.939-0.308v-83.965h16.823v-33.612h16.812v-33.043h11.296v45.392h-16.138v38.549h16.121v11.873h-16.281v21.099h5.041v-16.75h16.83v-16.636h16.139v-5.087h-32.89v-28.688h16.771v-16.639h50.058v-16.439h11.866v50.197c1.9-0.086 3.388-0.154 5.087-0.231v-16.373h11.718v33.416h50.167v28.663h-49.984v4.938h66.782v11.868h-16.632v33.612h-16.531v21.473h4.771v-16.363h11.577v61.79h-11.707v-16.322h-38.552v33.458h-16.815v16.815h-16.433v21.366h4.806v-16.675h16.816v-16.402h11.873v16.687h33.162v28.671h-33.496v16.326h-11.373v-28.548h33.362c-0.102-1.778-0.182-3.169-0.256-4.456h-38.55v16.197h-61.735v-28.557h16.575c-0.122-1.778-0.218-3.17-0.304-4.427h-21.209v38.459h32.965v11.304h-45.364v-100.56c-1.778 0.145-3.171 0.259-4.936 0.403v32.974h-11.302v-45.394h33.106v-21.143h-5.024v16.137h-11.276v-27.981h28.611v33.555h33.434v16.146h5.084v-16.098h11.225v28.445h-49.683v5.084h32.885v11.212h-44.731v-28.452h32.866v-4.423h-37.98v38.166h33.205v28.665h-16.601c0.086 1.906 0.153 3.39 0.214 4.742h21.529v-33.41h16.815v-16.815h16.815v-33.602h50.153v-4.938h-16.638v-50.404h-33.328v-11.577h45.288v16.351h4.65v-21.59h-49.926v-28.659h49.933v-4.938h-50.249v-16.814h-16.801v-33.279h-4.618v38.397h16.31v28.657h-16.316v4.938h16.651v50.069h4.938v-16.321h28.318v44.95h-78.535v-45.311h16.292v-4.938h-16.659v-16.442h-4.938v33.469h-33.614v33.612h-16.401v55.349h16.688v67.205h50.39v16.354h4.938v-33.036h28.678v16.219h21.755v-16.202h28.649v16.569c1.778-0.109 3.169-0.195 4.938-0.304v-16.756h16.671c-0.102-1.778-0.182-3.169-0.284-4.938h-16.784v-33.62h-33.081v-44.925h28.584v16.161h21.754v-100.72h16.205v-21.755h-16.753v-33.612h-16.637v-32.944h-5.088v32.896h-28.687v-33.566h-16.12v-45.286h16.068v-5.088h-16.245v-11.349h28.267v28.452h-16.6c0.085 1.898 0.152 3.386 0.213 4.75h37.957v-5.06h-16.24v-28.34h49.999v-38.341h-21.534c0.079 1.715 0.147 3.2 0.225 4.896h16.368v28.516h-83.807v33.612h-16.815v16.54h-45.181v-62.092h16.646v-16.814h16.813v-16.463h11.859v16.314h4.939v-33.11h28.307v11.712h-16.304v4.586h21.61v-33.465h16.815v-16.798h33.212v-4.937h-16.282v-11.469h28.118v28.543h-16.261v21.313h4.823v-16.252h62.27v16.696h16.337v28.182h-28.063v-11.751h16.565c-0.102-1.779-0.183-3.17-0.257-4.456h-21.247v21.136h37.924v-38.46h-16.728v-16.814h-49.823v-45.468h50.337v-16.19h11.696v32.917h5.089v-32.916h28.509v49.712h5.087v-66.96h116.98v-5.084h-32.922v-11.261h62.205v16.759h50.408v16.815h16.815v16.288h21.042v-5.059h-16.585v-32.927h-5.085v16.075h-11.715v-16.428h-50.038v-11.663h78.865v16.62h33.612v33.349h38.285v-21.315h-4.766v16.373h-28.389v-28.204h11.691v16.356h4.938v-16.354h45.159v78.895h-16.652v16.801h-16.479v4.615h55.195v-16.658h16.452v-21.394h-21.244v4.798h16.305v11.874h-16.672v16.414h-28.256v-11.743h16.688v-50.39h33.165v-4.937h-33.047v-11.426h45.351v16.701h16.794v33.457c1.778-0.086 3.168-0.154 4.937-0.239v-33.112h11.388v44.857h-28.571v-33.005h-38.395c0.11 1.692 0.201 3.083 0.316 4.852h33.048v61.738h-11.76v-16.576c-1.785 0.125-3.174 0.223-4.939 0.346v16.765h-16.822v16.252h-11.873v-16.15h-55.347v66.524h-11.873v-50.344h-16.168v-11.873h16.762v-32.928h11.694v16.076h5.089v-16.762h16.656v-33.068h11.693v16.226h4.76v-54.6h-5.056v32.87h-62.108v-33.031h-21.208v5.052h16.236v28.142h-45.265v-16.613h-33.378v-11.865h16.398v-4.938h-50.217v-16.589h-4.938v49.999h-11.868v-16.376h-38.551v16.36h-11.587v-28.488h49.952v-4.66h-55.181v50.225h-16.524v4.938h16.648v50.112h21.461v-4.776h-16.352v-62.263h16.649v-16.479h28.671v16.3h21.755v-33.079h28.672v16.68h33.612v16.815h100.34v28.652h-49.832v4.939h16.238v28.678h-16.218v21.755h16.2v28.145h-45.374v-33.522h-16.791v-16.659c-1.779 0.136-3.171 0.242-4.938 0.376v16.733h-16.671c0.13 1.779 0.231 3.17 0.36 4.938h33.559v33.622h16.791v16.658c1.779-0.139 3.171-0.249 4.938-0.387v-16.192h28.682v16.738h16.814v33.171h21.138v-5.026h-16.133v-11.71h49.727v-5.087h-16.133v-11.886h50.342v-16.174h11.222v28.619h-16.766v16.122h-11.692v-16.072h-5.09v16.764h-33.452v33.066h-11.7v-16.613h-33.604v-16.598h-4.724v21.568h33.417v16.566h21.755v-33.154h28.671v33.148h21.464v-4.775h-16.355v-28.669h16.648v-16.815h16.814v-33.598h16.465v-4.602h-38.402v16.662h-50.409v16.425h-28.269v-78.512h45.32v33.064h4.938v-16.685h16.819v-16.814h33.612v-33.14h28.671v33.505h16.815v33.108h21.599c-0.105-1.689-0.192-3.081-0.303-4.849h-16.776v-33.621h-16.273v-61.709h28.588v16.735h33.611v16.812h16.193v11.243h-28.613v-16.28h-21.093v5.043h16.574v32.975h5.088v-16.112h44.831v11.644h-16.1v5.089h33.55v16.83h16.814v16.815h16.638v16.464h16.436v11.873h-33.417v16.806h-16.585v4.938h16.396v28.667h-16.628v84.002h-16.527v55.348h16.334v11.873h-33.452v16.465h-28.671v-16.667h-16.426v-28.27h11.722v16.278h4.939v-16.664h16.422v-4.938h-49.877v-45.455h33.079v-4.938h-33.475v-16.818h-16.391v-28.654h16.261v-4.936h-16.261v-11.859h49.855v-4.938h-16.261v-11.877h33.487v-66.743h11.402v95.262h-11.746v-16.557c-1.785 0.09-3.172 0.159-4.939 0.248v16.795h-16.82v33.099h-11.851v-33.366c-1.78 0.109-3.171 0.195-4.94 0.303v16.756h-16.671c0.102 1.778 0.182 3.169 0.284 4.938h16.784v16.823h33.081v28.649h-33.372c0.123 1.779 0.219 3.17 0.305 4.427h38.54v-33.498h16.662c-0.125-1.785-0.223-3.173-0.347-4.938h-33.025v-28.681h33.526v-83.978h16.657c-0.142-1.778-0.254-3.171-0.395-4.938h-16.752v-16.245h-21.755v66.527h-28.496v-32.927h-5.087v16.565h-16.216v5.088h16.136v28.684h-32.92v55.349h16.759v67.205h16.134v28.672h-16.601v33.063h-28.498v-16.615h-16.815v-16.573h-21.519v4.757h16.394v11.868h-16.63v16.54h-11.873v-16.641h-16.504v-11.873h16.654v-16.466h45.468v16.666h16.799v16.435h4.575v-21.613h-16.672v-16.409h-55.349v16.254h-45.45v-16.256h-4.538v38.012h4.815v-16.271h28.675v16.688h16.814v16.815h16.814v33.612h16.794v16.661c1.778-0.095 3.168-0.169 4.464-0.239v-21.756h-16.203v-44.947h28.576v16.724h16.79v50.253c1.784-0.133 3.173-0.237 4.938-0.369v-50.354h16.825v-33.034h28.672v16.743h16.814v33.612h16.171v28.493h-32.901v5.087h33.548v50.424h33.612v16.814h16.291v11.524h-16.61v16.814h-16.815v16.576h-28.421v-11.688h16.634v-16.814h16.523v-21.465h-4.775v16.648h-16.812v16.814h-16.814v16.814h-16.814v16.815h-16.813v33.215h-11.873v-16.68h-33.179v-11.873h33.052v-38.101h-4.827v33.044h-61.81v-11.758h16.703v-50.41h16.815v-33.089h28.135v11.761h-16.576c0.125 1.78 0.223 3.172 0.311 4.424h21.742v-16.702h16.661c-0.127-1.779-0.227-3.17-0.316-4.419h-55.335v33.524h-16.814v50.408h-16.815v16.206h-28.05v-62.027h16.121v-5.084h-49.714v-11.711h32.917v-5.089h-33.366v-16.203h-5.084v49.721h-11.711v-16.127h-5.089v16.742h-16.828v16.814h-16.814v16.815h-16.812v83.308h-11.697v-16.429h-16.438v-11.873h16.398v-21.73c-1.719 0.083-3.205 0.154-4.899 0.235v16.581h-16.427v21.755h16.628v16.542h55.348v-16.344h11.564v28.494h-33.139v4.938h50.248v16.812h16.477v11.524h-28.506v-16.314h-4.599v21.606h16.297v28.657h-16.302v4.583h21.611v-33.466h16.815v-16.798h16.413v-4.938h-33.476v-16.818h-16.388v-45.03h44.894v11.736h-33.04v4.505h37.979v-21.637h-33.479v-16.673c-1.778 0.085-3.168 0.151-4.938 0.235v16.798h-16.821v16.814h-16.815v16.291h-28.135v-78.972h16.729v-16.814h16.815v-16.814h33.612v-16.187h28.671v67.15h67.206v16.815h33.432v32.913h5.087v-16.762h16.657v-33.262h16.64v-16.814h50.408v-16.815h16.814v-16.815h16.535v-21.755h-16.643v-16.815h-33.279v-79.049h16.326v-4.938h-33.122v-28.672h16.662v-16.439h28.671v16.676h16.814v33.612h16.375v28.217h-11.737v-16.241h-4.939v16.677h-16.371v4.936h49.842v11.86h-16.248v4.511h21.187v-21.635h-16.699v-33.612h-16.815v-33.612h-16.291v-61.726h11.761v16.576c1.78-0.126 3.172-0.225 4.94-0.351v-16.764h50.416v-16.25h11.301v78.396h-11.8v-16.745h-16.64v-16.188h-4.499v21.682h16.751v16.173h21.1v-88.892h-16.769v-16.3h-21.056v5.055h16.077v28.165h-44.888v-78.656h28.251v11.668h-16.606c0.089 1.9 0.159 3.389 0.222 4.731h21.535v-16.61h16.798c-0.091-1.908-0.162-3.391-0.242-5.087h-33.369v-50.238c-1.901 0.087-3.389 0.156-5.087 0.234v50.169h-16.659v84.002h-16.814v33.354h-11.603v-45.291h16.64v-84.002h16.815v-50.073h28.658v49.917h4.937v-33.121h11.873v33.46h16.439v28.671h-16.676v16.814h-33.182v38.128h21.197v-4.822h-16.256v-28.23h45.33v16.245h4.507v-21.633h-16.234v-11.526c9.65 4e-3 19.011 4e-3 28.371 4e-3z" fill="#FEFEFE"/>
	<path d="m469.79 482.17h-16.622v-83.983h-16.815v-16.691h-11.873v49.854h-21.621v-4.543h16.272v-62.248h-16.407v-16.815h-16.814v-16.664h-45.469v33.117h-4.791v-38.21h16.321v-11.714h-44.978v28.19h11.569v-16.358h4.937v66.914h16.639v4.939h-33.147v11.693h61.794v-11.585h-16.538v-16.81h-16.636v-4.938h16.566v-33.417h21.575v4.698h-16.387v45.455h33.186v4.938h-16.574v16.806h-33.606v33.426h-4.938v-33.199h-28.658v100.39h-4.938v-16.405h-11.671v28.294h33.163c0.079 1.698 0.149 3.187 0.237 5.087h-16.799v33.604h-16.611v45.118h16.286v16.772h11.89v-32.885h5.084v16.132h33.435v16.762h11.873v-16.174h16.748v-11.873h-49.732v-38.551h32.951v-11.873h-16.26v-16.72h-11.873v16.295h-16.813v33.612h-16.821v16.801c-1.77 0.082-3.16 0.146-4.833 0.223v-21.608h16.358v-33.612h16.691v-28.671h-16.259v-38.416h21.222v4.557h-16.283v28.655h16.421v16.814h16.814v16.659h45.31v-11.545h-16.339v-4.937h16.339v-45.293h-11.559v16.34h-21.587v-4.658h16.526v-16.803h16.814v-16.633h21.579v4.686h-16.379v62.252h16.38v4.938h-16.557v33.428h-4.938v-16.374h-28.662v16.55h-33.422v28.666h66.794v4.938h-16.595v16.807h-16.814v16.611h-21.405v-16.246h-28.672v16.089h-21.755v-16.162h-16.815v-33.547h-78.993v27.998h44.803v-11.313h-32.989c-0.138-1.765-0.247-3.157-0.381-4.862h38.389v49.871h16.755c0.137 1.768 0.245 3.16 0.377 4.864h-21.593v-32.983h-45.478v16.22c-1.768 0.127-3.16 0.227-4.939 0.355v-33.459h-33.588v-16.824h-16.771c-0.117-1.766-0.208-3.154-0.321-4.852h21.598v16.207h28.68v-33.07c1.766-0.104 3.153-0.186 4.938-0.292v16.567h45.455v-16.278c1.769-0.103 3.16-0.183 4.938-0.286v16.565h28.65v-16.313h16.704v-28.671h-16.353v-33.612h-33.483v-21.626h4.534v16.265h45.451v-100.38h16.676v-45.468h-16.436v-50.258h-11.873v16.322h-4.937v-33.118h-28.658v33.119h-4.939v-33.274h-16.65v-4.938h50.06v-16.801h16.657v-11.872h-33.133v-4.937h50.088v-16.802h33.446v-11.873h-33.318v-50.229h-11.873v16.371h-38.551v-16.388h-11.873v33.405h-33.405v11.488h44.966v-16.08h5.088v16.135h16.585v5.087h-100.09v16.634h-16.772v28.623h11.212v-16.161h16.826v-16.745h5.035v21.116h-16.354v16.75h-21.685v-37.955h16.231v-16.815h33.611v-16.815h33.612v-33.611h16.822v-16.792c1.767-0.092 3.155-0.164 4.938-0.257v33.356h28.65v-16.217h38.556c0.064 1.316 0.132 2.706 0.218 4.484h-16.565v45.336h61.795v-16.358h33.612v-33.482h21.625v4.538h-16.269v28.523h28.123v-11.476h-16.288v-4.937h16.288v-28.656h-16.284v-38.552h16.302v-28.514h-28.177v11.552h16.345v4.937h-16.507v50.397h-33.44v28.497h11.591v-16.374h4.766v21.313h-21.487v-49.96h-11.868v16.394h-4.937v-16.577h-16.806v-16.621h-28.475v11.505h16.374c0.076 1.7 0.143 3.188 0.22 4.893h-21.532v-21.348h38.003v16.244h28.69v-32.876h5.087v49.674h28.492v-66.48h38.5v37.9h-16.116v28.671h16.204v50.335h78.983v-28.099h-16.169v-21.664h38.009c0.086 1.259 0.18 2.651 0.302 4.431h-33.371v11.85h16.284v16.821h16.783c0.103 1.769 0.184 3.16 0.287 4.939h-16.566v11.852h16.312v16.703h11.873v-33.144h16.818v-33.489h4.938v16.369h33.594v16.688h11.743v-44.92h-28.132v11.487h16.296v4.802h-21.375v-16.442h-16.815v-16.662h-28.515v11.538h16.327v38.382h-21.291v-4.651h16.352v-28.489h-78.592v28.211h11.601v-16.382h4.938v33.354h16.631v4.766h-21.49v-16.547h-16.63v-38.552h16.571v-16.628h4.938v16.404h45.455v-33.203h4.938v16.599h33.604v16.659h100.56c0.078 1.698 0.145 3.186 0.232 5.087h-50.196v28.509h16.372c0.076 1.695 0.143 3.181 0.228 5.087h-16.601v45.306h16.373c0.075 1.701 0.141 3.189 0.217 4.892h-21.732v-33.237h-16.464v-16.601h-28.672v16.136h-16.764v28.671h16.177v16.75h11.886v-16.136h5.085v32.998h16.639v16.815h16.816v16.732h11.884v-33.008c1.765-0.131 3.157-0.235 4.936-0.367v16.671h16.731c0.137 1.767 0.245 3.159 0.383 4.938h-16.58v45.444h16.259v33.612h16.718v21.749c-1.274 0.079-2.666 0.166-4.445 0.277v-16.569h-11.754v28.156h16.314v33.612h33.612v16.696h11.873v-33.174h33.479v-45.471h-16.279v-4.81h38.151v33.222h16.678v4.938h-16.42v16.665h-4.939v-49.871h-11.856v50.005h-33.468v11.727h78.545v-11.519h-16.319v-4.937h16.319v-28.658h-16.473v-83.84h-11.873v50.104h-83.826v62.086h11.606v-16.559h33.42v-11.873h-16.596v-16.601h-11.716v16.227h-4.879v-21.176h21.208v16.284h16.772v21.756h-32.947v16.758h-21.756v-66.58h-16.745v-21.677h4.515v16.14h45.306v-32.938h5.087v32.939h45.221v-28.092h-16.17c-0.146-1.765-0.262-3.155-0.41-4.938h16.654v-16.79h33.53v-28.584h-11.337v16.228c-1.763 0.124-3.152 0.221-4.854 0.341v-21.598h32.997v-11.873h-16.292v-33.506h-45.36v11.397h33.122c0.086 1.768 0.153 3.158 0.24 4.937h-50.266v16.682h-38.553v-33.034h-11.878v49.851h-4.82v-54.791h21.33v33.051h28.671v-16.411h16.815v-16.815h33.612v-33.462h4.938v33.261h16.801v33.454h45.306v-28.351h-16.507v-33.612h-16.635v-38.378h4.681v33.347h16.805v33.426h28.667v-16.394h4.938v16.582h33.603v16.814h16.815v16.659h16.57c0.074 1.701 0.139 3.189 0.222 5.087h-16.799v16.634h-16.43v28.513h16.074v5.087h-16.112v83.822h-16.814v67.206h-16.829v16.751h-5.042v-21.096h16.282v-28.686h-49.71v-5.087h49.767v-33.435h16.75v-28.685h-32.935v-5.087h33.002v-83.827h16.74v-28.672h-16.245v-16.727h-45.478v66.631c-1.768 0.119-3.16 0.213-4.938 0.333v-33.371h-28.648v16.288h-16.713v28.679h16.308c0.089 1.77 0.159 3.161 0.249 4.939h-33.354v79.041h16.331v67.211h16.696v4.83h-21.293v-16.249h-79.062v16.248h-21.755v-16.265h-28.532v95.471h33.088v21.602h-21.256v-4.604h16.318v-11.859h-33.266v-50.246h-11.872v100.33h-4.937v-16.344h-11.861v33.302h-16.64v28.494h11.602v-16.555h16.814v-16.814h16.659v-50.17c1.697-0.078 3.181-0.147 5.087-0.235v16.799h33.605v16.64h33.262v16.601h28.628v-27.947h-11.228v16.1h-5.085v-32.946h-16.639v-33.554h-11.812v44.856h16.131v5.03h-21.132v-66.693h-28.6v11.291h16.148v5.019h-21.089v-21.335h16.245v-16.752c1.765-0.141 3.155-0.253 4.938-0.396v16.657h16.79v16.814h16.815v33.612h16.814v16.712h28.564v-44.983h-16.227v-21.637h4.499v16.351h16.796v50.287h45.468v-33.182h16.68v-28.533h-11.485v16.437h-16.814v33.462h-4.794v-38.199h16.467v-33.461h4.938v16.466h16.801v33.611h16.659v4.938h-33.125v28.658h16.322v55.189h-4.635v-16.341h-11.861v16.502h-33.439v11.873h33.335v16.63h11.873v-16.575h16.659v-66.969c1.698-0.081 3.186-0.151 5.087-0.241v50.387h16.621v4.938h-16.594v16.807h-16.814v16.642h-16.482v16.592h-5.263v-33.034h-45.078v28.102h11.201v-16.08h5.05v21.022h-21.201v-37.875h16.151v-16.815h33.612v-16.814h16.745v-28.597h-78.479v33.041h-16.815v33.613h-16.718v11.882h16.275c0.104 1.764 0.186 3.152 0.291 4.936h-16.672v16.754c-1.766 0.111-3.154 0.198-4.849 0.305v-38.395h16.213v-28.672h-16.314v-16.815h-33.611v-16.695h-28.672v33.178h-16.814v16.815h-16.814v16.814h-16.814v16.814h-16.814v16.815h-16.648v11.871h16.357v4.937h-16.524v16.803h-16.815v33.612h-16.81v50.229h-4.938v-33.185h-11.86v66.779h-4.937v-33.185h-11.864v33.365h-16.619v45.268h28.289v-16.234h21.578v16.078h62.265v-16.097h21.7v37.846h-4.477v-32.905h-11.695v16.174h-16.825v16.741h-5.087v-16.129h-45.306v16.13h-5.09v-32.927h-11.697v16.205h-33.535v45.468h33.041v33.524h28.672v-32.985h38.545c0.079 1.272 0.166 2.661 0.277 4.443h-16.663v50.386h-16.822v16.786c-1.769 0.099-3.16 0.177-4.938 0.276v-16.563h-28.658v33.09c-1.77 0.096-3.161 0.171-4.843 0.262v-38.394h49.819v-45.359h-11.395v33.026h-38.55v-16.246h-28.671v16.264h-21.621v-4.552h16.41v-16.799h33.472v-11.873h-33.238v-50.255h-11.873v66.868h-16.649v45.467h16.35v4.938h-16.351v79.048h16.352v4.776h-21.46v-16.349h-11.699v28.39h16.545v16.627h62.265v-16.388h21.537c0.064 1.339 0.135 2.828 0.225 4.728h-16.607v11.669h28.457v-50.031h16.43v-28.513h-16.075v-5.09h16.075v-11.654h-27.984v16.143h-16.815v16.757h-38.485v-4.483h32.91v-11.696h-16.182v-50.339h-11.873v33.015h-16.733v11.884h16.194c0.138 1.765 0.247 3.157 0.385 4.936h-16.58v28.647h16.258v33.52h11.872v-16.295h33.506v-11.88h-33.11c-0.087-1.768-0.155-3.159-0.243-4.936h33.457v-16.685h21.755c0.068 1.302 0.14 2.694 0.233 4.477h-16.673v33.592h-33.611v16.696h-38.432v-4.506h16.244v-28.652h-16.243v-55.349h16.261v-28.674h-16.283v-4.939h33.219v-16.664h4.938v66.668h28.658v-33.076h4.938v16.28h28.655v-16.417h16.815v-50.408h16.814v-16.815h16.653v-11.873h-50.102v-16.64h-11.873v16.545h-16.809v33.431h-4.938v-33.37h-16.805v-16.624h-11.718v16.364c-1.697 0.081-3.186 0.152-4.899 0.234v-21.537h21.534v16.391h28.496v-16.235h21.58v16.085h28.687v-16.095h5.087v16.097h28.493v-16.159h16.815v-16.816h16.746v-11.802h-28.091v16.154h-5.087v-83.341h-62.102v16.172c-1.767 0.146-3.16 0.261-4.87 0.403v-21.591h32.972v-11.873h-33.051v-16.722h-11.874v49.883h-16.71v28.672h16.328v16.699h28.671v-16.368h16.819v-16.685h4.939v16.266h11.727v-28.119h-28.266v16.421h-16.816v16.669h-4.938v-16.449h-16.658v-4.938h33.234v-16.655h38.403v38.192h-33.265v16.652h-38.552v-16.337h-45.466v16.364h-4.77v-21.478h33.333v-33.612h16.815v-50.219h21.755v16.592h33.439v16.465h33.435v33.629h16.76v5.087h-16.082v28.449h44.792v-16.153h16.758v-11.887h-16.118v-5.087h32.915v-11.71h-16.118v-5.085h32.988v-33.368h5.089v32.909h11.696v-16.179h16.812v-16.817h33.537v-11.872h-16.242v-33.62h-50.355c-0.129-1.768-0.231-3.159-0.361-4.939h16.577v-11.763h-28.035v44.842h44.848v-11.376h-33.092c-0.095-1.765-0.17-3.152-0.261-4.84h38.293v21.27h-16.329v16.791c-1.767 0.091-3.154 0.162-4.938 0.254v-16.567h-62.135v11.399h33.029v21.633h-4.505v-16.359h-33.593v-16.819h-16.69v-4.938h49.849v-45.45h-33.18v-33.615h-16.681v-4.939h16.277v-11.723h-28.268v16.425h-16.815v16.814h-16.659v28.512h11.548v-16.501h16.813v-16.638h21.583v4.673h-16.542v16.804h-16.814v16.814h-16.81v16.63h-4.755v-55.12h16.58v-16.814h16.814v-16.64h33.28v-16.592h5.262v66.664h66.85v16.64h33.612v33.562h28.671v-16.17h33.612v-16.814h16.815v-16.816h16.734v-11.789h-28.116v16.274h-16.824v16.776c-1.766 0.11-3.154 0.197-4.849 0.303v-21.598h16.311v-16.815h50.408v-16.814h16.815v-16.814h16.814v-16.814h16.818v-33.478h4.939v16.276h11.723v-28.128h-44.934v11.493h16.296v21.606h-4.595v-16.457h-16.801v-33.456h-28.512v11.545h16.34v4.782h-21.28v-55.035h16.333v-28.669h-33.157v-4.938h16.529v-16.638h4.938v16.521h16.632v38.552h-16.355v28.672h33.359v16.621h62.067v-61.896h-16.372c-0.076-1.701-0.142-3.189-0.218-4.893h21.731v16.401h11.666v-28.093h-44.905v27.987h16.095v38.491h-4.46v-32.941h-16.639v-50.353h-11.887v16.116h-5.087v-49.71h-11.71v16.116h-5.034v-21.113h16.351v-16.751h38.483v21.078h-4.513v-16.139h-28.426v44.872h16.231v16.732h45.69v-5.056c0-41.169-2e-3 -82.337 7e-3 -123.51 0-1.834 0.103-3.667 0.158-5.501h4.568v172.65h-16.443v50.439h-16.668v33.64h-17.02v16.846h-16.671v16.846h-16.846v16.671h-16.846v16.846h-16.671v16.846h-16.846v16.671h-16.846v16.845h-33.467v16.845h-16.846v16.671h-33.641v16.845h-16.671v16.845h-33.816v16.845h-16.671v16.846h-16.846v16.671h-16.846v16.846h-16.671v16.846h-16.846v16.671h-16.846v16.846h-16.671v16.846h-16.845v50.262h-16.842v67.232h-16.667v50.249h-105.94v-16.347h-16.495v-38.581h16.315v-117.44h16.838v-67.232h16.667v-50.437h16.844v-33.467h16.844v-33.642h16.67v-16.846h16.846v-33.466h16.844v-33.816h16.845v-16.671h16.844v-50.436h16.669v-33.641h16.842v-83.852h16.628v-79.087h-16.251v-67.232h-16.843v-33.467h-16.845v-16.846h-16.671v-16.846h-17.021v-16.846h-16.671v-16.845h-33.641v-16.499h-163.06v16.293h-33.467v16.844h-33.642v16.67h-16.846v16.846h-16.529v28.702h16.218v16.67h50.437v16.845h33.466v16.843h17.022v16.846h16.671v16.846h16.846v16.671h16.843v84.036h16.503c0.156 1.684 0.282 3.046 0.44 4.754-1.857 0.188-3.43 0.343-5.003 0.497z"/>
	<path d="m1040.9 331h-28.368v11.526h16.234v21.633h-4.507v-16.245h-45.33v28.23h16.256v4.822h-21.197v-38.128h33.182v-16.814h16.676v-28.671h-16.439v-33.46h-11.873v33.121h-4.937v-49.917h-28.658v50.073h-16.815v84.002h-16.64v45.291h11.603v-33.354h16.814v-84.002h16.659v-50.169c1.699-0.078 3.187-0.147 5.087-0.234v50.238h33.369c0.081 1.696 0.151 3.179 0.242 5.087h-16.798v16.61h-21.535c-0.063-1.343-0.133-2.831-0.222-4.731h16.606v-11.668h-28.251v78.656h44.888v-28.165h-16.077v-5.055h21.056v16.3h16.769v88.892h-21.1v-16.173h-16.751v-21.682h4.499v16.188h16.64v16.745h11.8v-78.396h-11.301v16.25h-50.416v16.764c-1.768 0.125-3.16 0.224-4.94 0.351v-16.576h-11.761v61.726h16.291v33.612h16.815v33.612h16.699v21.635h-21.187v-4.511h16.248v-11.86h-49.842v-4.936h16.371v-16.677h4.939v16.241h11.737v-28.217h-16.375v-33.612h-16.814v-16.676h-28.671v16.439h-16.662v28.672h33.122v4.938h-16.326v79.049h33.279v16.815h16.643v21.755h-16.535v16.815h-16.814v16.815h-50.408v16.814h-16.64v33.262h-16.657v16.762h-5.087v-32.913h-33.432v-16.815h-67.206v-67.15h-28.671v16.187h-33.612v16.814h-16.815v16.814h-16.729v78.972h28.135v-16.291h16.815v-16.814h16.821v-16.798c1.77-0.084 3.16-0.151 4.938-0.235v16.673h33.479v21.637h-37.979v-4.505h33.04v-11.736h-44.894v45.03h16.388v16.818h33.476v4.938h-16.413v16.798h-16.815v33.466h-21.611v-4.583h16.302v-28.657h-16.297v-21.606h4.599v16.314h28.506v-11.524h-16.477v-16.812h-50.248v-4.938h33.139v-28.494h-11.564v16.344h-55.348v-16.542h-16.628v-21.755h16.427v-16.581c1.694-0.081 3.18-0.153 4.899-0.235v21.73h-16.398v11.873h16.438v16.429h11.697v-83.308h16.812v-16.815h16.814v-16.814h16.828v-16.742h5.089v16.127h11.711v-49.721h5.084v16.203h33.366v5.089h-32.917v11.711h49.714v5.084h-16.121v62.027h28.05v-16.206h16.815v-50.408h16.814v-33.524h55.335c0.089 1.249 0.189 2.641 0.316 4.419h-16.661v16.702h-21.742c-0.088-1.253-0.186-2.644-0.311-4.424h16.576v-11.761h-28.135v33.089h-16.815v50.41h-16.703v11.758h61.81v-33.044h4.827v38.101h-33.052v11.873h33.179v16.68h11.873v-33.215h16.813v-16.815h16.814v-16.814h16.814v-16.814h16.812v-16.648h4.775v21.465h-16.523v16.814h-16.634v11.688h28.421v-16.576h16.815v-16.814h16.61v-11.524h-16.291v-16.814h-33.612v-50.424h-33.548v-5.087h32.901v-28.493h-16.171v-33.612h-16.814v-16.743h-28.672v33.034h-16.825v50.354c-1.765 0.132-3.154 0.236-4.938 0.369v-50.253h-16.79v-16.724h-28.576v44.947h16.203v21.756c-1.296 0.069-2.687 0.144-4.464 0.239v-16.661h-16.794v-33.612h-16.814v-16.815h-16.814v-16.688h-28.675v16.271h-4.815v-38.012h4.538v16.256h45.45v-16.254h55.349v16.409h16.672v21.613h-4.575v-16.435h-16.799v-16.666h-45.468v16.466h-16.654v11.873h16.504v16.641h11.873v-16.54h16.63v-11.868h-16.394v-4.757h21.519v16.573h16.815v16.615h28.498v-33.063h16.601v-28.672h-16.134v-67.205h-16.759v-55.349h32.92v-28.684h-16.136v-5.088h16.216v-16.565h5.087v32.927h28.496v-66.527h21.755v16.245h16.752c0.141 1.767 0.253 3.16 0.395 4.938h-16.657v83.978h-33.526v28.681h33.025c0.124 1.765 0.221 3.153 0.347 4.938h-16.662v33.498h-38.54c-0.087-1.257-0.183-2.649-0.305-4.427h33.372v-28.649h-33.081v-16.823h-16.784c-0.102-1.769-0.182-3.16-0.284-4.938h16.671v-16.756c1.769-0.109 3.16-0.194 4.94-0.303v33.366h11.851v-33.099h16.82v-16.795c1.767-0.089 3.154-0.159 4.939-0.248v16.557h11.746v-95.262h-11.402v66.743h-33.487v11.877h16.261v4.938h-49.855v11.859h16.261v4.936h-16.261v28.654h16.391v16.818h33.475v4.938h-33.079v45.455h49.877v4.938h-16.422v16.664h-4.939v-16.278h-11.722v28.27h16.426v16.667h28.671v-16.465h33.452v-11.873h-16.334v-55.348h16.527v-84.002h16.628v-28.667h-16.396v-4.938h16.585v-16.806h33.417v-11.873h-16.436v-16.464h-16.638v-16.815h-16.814v-16.83h-33.55v-5.089h16.1v-11.644h-44.831v16.112h-5.088v-32.975h-16.574v-5.043h21.093v16.28h28.613v-11.243h-16.193v-16.812h-33.611v-16.735h-28.588v61.709h16.273v33.621h16.776c0.11 1.769 0.197 3.16 0.303 4.849h-21.599v-33.108h-16.815v-33.505h-28.671v33.14h-33.612v16.814h-16.819v16.685h-4.938v-33.064h-45.32v78.512h28.269v-16.425h50.409v-16.662h38.402v4.602h-16.465v33.598h-16.814v16.815h-16.648v28.669h16.355v4.775h-21.464v-33.148h-28.671v33.154h-21.755v-16.566h-33.417v-21.568h4.724v16.598h33.604v16.613h11.7v-33.066h33.452v-16.764h5.09v16.072h11.692v-16.122h16.766v-28.619h-11.222v16.174h-50.342v11.886h16.133v5.087h-49.727v11.71h16.133v5.026h-21.138v-33.171h-16.814v-16.738h-28.682v16.192c-1.767 0.139-3.16 0.248-4.938 0.387v-16.658h-16.791v-33.622h-33.559c-0.129-1.768-0.23-3.159-0.36-4.938h16.671v-16.733c1.767-0.135 3.159-0.241 4.938-0.376v16.659h16.791v33.522h45.374v-28.145h-16.2v-21.755h16.218v-28.678h-16.238v-4.939h49.832v-28.652h-100.34v-16.815h-33.612v-16.68h-28.672v33.079h-21.755v-16.3h-28.671v16.479h-16.649v62.263h16.352v4.776h-21.461v-50.112h-16.648v-4.938h16.524v-50.225h55.181v4.66h-49.952v28.488h11.587v-16.36h38.551v16.376h11.868v-49.999h4.938v16.589h50.217v4.938h-16.398v11.865h33.378v16.613h45.265v-28.142h-16.236v-5.052h21.208v33.031h62.108v-32.87h5.056v54.6h-4.76v-16.226h-11.693v33.068h-16.656v16.762h-5.089v-16.076h-11.694v32.928h-16.762v11.873h16.168v50.344h11.873v-66.524h55.347v16.15h11.873v-16.252h16.822v-16.765c1.765-0.124 3.154-0.221 4.939-0.346v16.576h11.76v-61.738h-33.048c-0.115-1.768-0.206-3.16-0.316-4.852h38.395v33.005h28.571v-44.857h-11.388v33.112c-1.768 0.086-3.159 0.153-4.937 0.239v-33.457h-16.794v-16.701h-45.351v11.426h33.047v4.937h-33.165v50.39h-16.688v11.743h28.256v-16.414h16.672v-11.874h-16.305v-4.798h21.244v21.394h-16.452v16.658h-55.195v-4.615h16.479v-16.801h16.652v-78.895h-45.159v16.354h-4.938v-16.356h-11.691v28.204h28.389v-16.373h4.766v21.315h-38.285v-33.349h-33.612v-16.62h-78.865v11.663h50.038v16.428h11.715v-16.075h5.085v32.927h16.585v5.059h-21.042v-16.288h-16.815v-16.815h-50.408v-16.759h-62.205v11.261h32.922v5.084h-116.98v66.96h-5.087v-49.712h-28.509v32.916h-5.089v-32.917h-11.696v16.19h-50.337v45.468h49.823v16.814h16.728v38.46h-37.924v-21.136h21.247c0.074 1.286 0.154 2.677 0.257 4.456h-16.565v11.751h28.063v-28.182h-16.337v-16.696h-62.27v16.252h-4.823v-21.313h16.261v-28.543h-28.118v11.469h16.282v4.937h-33.212v16.798h-16.815v33.465h-21.61v-4.586h16.304v-11.712h-28.307v33.11h-4.939v-16.314h-11.859v16.463h-16.813v16.814h-16.646v62.092h45.181v-16.54h16.815v-33.612h83.807v-28.516h-16.368c-0.078-1.695-0.146-3.181-0.225-4.896h21.534v38.341h-49.999v28.34h16.24v5.06h-37.957c-0.061-1.364-0.128-2.852-0.213-4.75h16.6v-28.452h-28.267v11.349h16.245v5.088h-16.068v45.286h16.12v33.566h28.687v-32.896h5.088v32.944h16.637v33.612h16.753v21.755h-16.205v100.72h-21.754v-16.161h-28.584v44.925h33.081v33.62h16.784c0.102 1.769 0.182 3.16 0.284 4.938h-16.671v16.756c-1.768 0.109-3.16 0.194-4.938 0.304v-16.569h-28.649v16.202h-21.755v-16.219h-28.678v33.036h-4.938v-16.354h-50.39v-67.205h-16.688v-55.349h16.401v-33.612h33.614v-33.469h4.938v16.442h16.659v4.938h-16.292v45.311h78.535v-44.95h-28.318v16.321h-4.938v-50.069h-16.651v-4.938h16.316v-28.657h-16.31v-38.397h4.618v33.279h16.801v16.814h50.249v4.938h-49.933v28.659h49.926v21.59h-4.65v-16.351h-45.288v11.577h33.328v50.404h16.638v4.938h-50.153v33.602h-16.815v16.815h-16.815v33.41h-21.529c-0.061-1.352-0.128-2.836-0.214-4.742h16.601v-28.665h-33.205v-38.166h37.98v4.423h-32.866v28.452h44.731v-11.212h-32.885v-5.084h49.683v-28.445h-11.225v16.098h-5.084v-16.146h-33.434v-33.555h-28.611v27.981h11.276v-16.137h5.024v21.143h-33.106v45.394h11.302v-32.974c1.765-0.144 3.157-0.258 4.936-0.403v100.56h45.364v-11.304h-32.965v-38.459h21.209c0.086 1.257 0.182 2.648 0.304 4.427h-16.575v28.557h61.735v-16.197h38.55c0.074 1.287 0.154 2.678 0.256 4.456h-33.362v28.548h11.373v-16.326h33.496v-28.671h-33.162v-16.687h-11.873v16.402h-16.816v16.675h-4.806v-21.366h16.433v-16.815h16.815v-33.458h38.552v16.322h11.707v-61.79h-11.577v16.363h-4.771v-21.473h16.531v-33.612h16.632v-11.868h-66.782v-4.938h49.984v-28.663h-50.167v-33.416h-11.718v16.373c-1.698 0.077-3.186 0.145-5.087 0.231v-50.197h-11.866v16.439h-50.058v16.639h-16.771v28.688h32.89v5.087h-16.139v16.636h-16.83v16.75h-5.041v-21.099h16.281v-11.873h-16.121v-38.549h16.138v-45.392h-11.296v33.043h-16.812v33.612h-16.823v83.965c-1.766 0.11-3.155 0.196-4.939 0.308v-33.366h-11.852v117.28h-4.975v-122.42h16.471v-50.255h16.838v-33.637h16.665v-33.637h16.841v-33.461h16.839v-17.019h16.843v-16.668h16.843v-16.841h33.462v-16.841h16.843v-16.668h16.843v-16.842h33.462v-16.838h50.431v-16.662h50.43v-17.008h84.017v-16.499h156.13v16.245h100.64v16.831h50.605v16.838h33.462v16.84h33.637v16.665h33.637v16.841h16.668v16.843h16.843v16.668h16.843v16.843h16.668v16.843h16.846v16.667h16.838v33.813h16.84v33.462h16.84v33.646h16.502c0.157 1.681 0.284 3.041 0.445 4.753-1.861 0.175-3.435 0.33-5.009 0.485z"/>
	<path d="m709.94 1540.1v16.846h-16.671v16.671h-16.845v16.845h-16.671v16.845h-16.846v16.669h-50.434v16.781h-88.964v-16.318h-50.435v-16.843h-16.671v-16.844h-33.64v-16.669h-16.845v-33.64h-16.669v-33.64h-16.765v-122.38h16.363v-50.61h16.843v-16.671h16.845v-16.845h16.671v-16.845h16.845v-16.67h33.64v-16.749h139.17v16.411h33.64v16.669h33.64v16.845h16.67v16.844h17.02v33.64h16.669v33.64h16.735v105.58h-16.457v50.434c-5.72-1e-3 -10.933-1e-3 -16.842-1e-3zm-100.83-117.31h-33.386v45.394h16.355v21.755h-16.338v28.671h33.449v16.471h45.468v-16.664h16.814v-16.814h16.406v-28.249h-62.119v16.263h-4.548v-38.02h4.811v16.279h45.454v-33.075h4.938v33.074h28.657v-49.87h4.938v33.072h28.256v-62.135h-100.67v-16.814h-16.365v-54.886h4.83v16.677h33.165v4.938h-33.042v28.657h33.041v4.937h-16.244v11.419h62.13v-16.561c1.784 0.078 3.171 0.14 4.936 0.217v16.343h11.407v-28.54h-33.363c0.089-1.778 0.159-3.169 0.248-4.939h16.318v-28.678h-16.709v-16.814h-16.815v-16.791h-50.256c0.121-1.779 0.215-3.17 0.335-4.936h16.239v-11.344h-45.356v16.577c-1.778-0.128-3.17-0.228-4.418-0.318v-21.738h16.171v-11.309h-45.388v16.738h-33.611v16.815h-32.98v44.825h28.617v-16.095h21.755v16.598h33.261v33.431h16.436v5.087h-50.013v16.658h-16.814v16.588h-21.523v-21.341h4.753v16.402h11.628v-45.028h-45.274v16.383h-4.938v-33.425h-33.367v-4.938h33.186v-28.657h-33.185v-4.938h33.423v-16.577h4.938v67.022h50.402v33.351h11.873v-16.638h16.803v-16.529h4.937v16.36h11.573v-28.192h-28.494v16.341h-4.937v-33.139h-11.872v16.317h-38.202v-55.196h33.464v-16.813h33.211v-11.464h-78.508v11.728h33.061v4.937h-66.655v11.86h16.265v4.938h-33.483v16.819h-16.366v95.858h50.293v33.611h50.408v50.408h16.814v16.814h16.814v33.611h16.814v50.408h16.815v16.638h49.793v4.684h-71.479v-5.017h16.152v-11.885h-16.741v-50.234h-49.792v-5.087h32.931v-28.684h-16.752v-16.813h-50.408v-16.815h-16.814v-16.118h-45.285v16.068h-4.422v-21.531h33.22v-16.273h5.262v16.586h49.72v5.085h-32.87v11.715h16.429v16.44h28.458v-11.668h-16.606c0.09-1.901 0.16-3.389 0.24-5.087h16.364v-28.516h-50.215v-33.357h-45.468v16.635h-33.6v33.331h-4.666v-38.382h33.141v-28.671h-16.339v-38.241h4.78v33.14h11.552v-61.772h-11.715v16.661h-16.814v50.407h-16.42v11.856h33.081v4.939h-33.08v95.861h16.681v33.178h28.671v-16.254h21.301v4.827h-16.675v33.174h-4.937v-16.253h-11.43v28.091h78.927v-50.155c1.784 0.078 3.171 0.14 4.938 0.217v50.4h16.344v21.286h-38.299c0.086-1.683 0.157-3.07 0.247-4.835h33.111v-11.395h-78.455v11.771h33.513v16.816h16.814v16.252h62.24v-16.58c1.778 0.141 3.17 0.251 4.397 0.348v21.734h-16.156v11.289h78.388v-11.804h-50.342v-50.234h-16.177v-5.084h16.119v-11.253h-27.965v28.441h16.101v5.087h-16.752v16.343h-37.883v-5.044h32.896v-45.484h-16.088v-38.551h16.248v-11.523h-50.205v-16.814h-16.814v-16.573h-11.873v16.63h-33.334v11.873h49.935v38.551h-16.324v11.535h28.502v-33.119h4.61v38.058h-38.042v-21.604h16.288v-28.278h-45.314v16.283h-4.936v-49.877h-11.86v16.284h-4.559v-21.618h16.678v-33.611h33.612v-16.385h21.313v4.823h-16.69v16.819h-33.147v44.992h28.561v-16.206h21.755v16.718h16.814v16.814h50.408v16.79h16.655c-0.144 1.778-0.256 3.171-0.398 4.938h-32.978v28.683h50.333v66.597h95.858v-16.753h16.168v-45.29h-16.104v-4.466h21.689v32.897h11.873v-16.769h16.636v-32.909h5.085v16.075h11.715v-16.428h16.443v-45.461h-16.601c0.086-1.906 0.152-3.392 0.229-5.087h16.567v-16.276h5.087v16.227h11.515v-28.251h-28.474v16.621h-16.814v33.61h-16.537v11.583h28.489v-16.356h4.656v21.587h-49.933v11.873h16.336v21.437h-4.783v-16.643h-83.695v-4.937h16.347v-11.554h-28.179v45.296h33.124v4.937h-16.328v11.531h44.96v-11.723h-16.668v-16.799h-33.228v-4.572h38.411v16.673h16.407v21.335h-55.22v-16.69h-16.356v-88.94h16.22v-11.852h-33.353c0.087-1.779 0.156-3.169 0.242-4.94h16.796v-50.415h33.612v-16.812h16.28v-11.332h-61.62v11.766h33.375c-0.136 1.78-0.243 3.172-0.379 4.939h-50.35v16.826h-16.234v44.873h11.803v-16.744h16.185v-11.696h-16.115v-5.089h16.57v-16.196h4.494v38.481h-16.119v28.671h16.28v37.889h-5.042v-33.548h-16.83v-16.814h-16.814v-50.233h-33.262v-33.236h-11.866v33.4c-1.906-0.086-3.389-0.153-5.087-0.23v-33.37h-16.659v-16.807h-16.798c0.091-1.907 0.162-3.393 0.243-5.087h16.364v-11.489h-28.238v28.474h16.39v4.702h-21.33v-71.71h38.126v4.759h-33.185v28.667h33.429v33.326h28.671v-16.345h21.454v4.778h-16.348v45.152h45.304v-16.655h16.814v-16.814h50.029v-79.061h-33.473v-16.399h-28.242v11.747h16.693v16.815h33.152v38.405c-1.68-0.079-3.066-0.143-4.833-0.226v-33.597h-33.618v-16.32h-45.447v16.562c-1.778-0.097-3.168-0.174-4.461-0.244v-21.754h33.509v-16.814h33.589v-16.663c1.785 0.118 3.172 0.21 4.938 0.327v33.042h28.658v-16.574c1.778 0.12 3.17 0.214 4.938 0.334v16.768h33.619v16.26h11.849v-16.578c1.78 0.136 3.172 0.242 4.939 0.376v16.756h16.825v16.79h16.656c-0.144 1.783-0.257 3.173-0.4 4.938h-16.18v28.658h16.581c-0.145 1.778-0.259 3.171-0.359 4.389h-21.736v-16.712h-33.451c0.147-1.778 0.262-3.171 0.408-4.938h32.969v-28.683h-33.54v-16.199h-28.042v79.002h16.76v16.813h33.612v16.122h28.142v-11.484h-16.239v-4.586h54.776v37.807h-5.058v-33.041h-28.334v49.837h-5.262v-33.039h-28.339v16.607h-16.604v11.866h16.605c-0.089 1.9-0.159 3.388-0.222 4.732h-21.534v-16.391h-45.232v11.683h16.629v50.408h16.813v16.516h11.873v-16.649h16.481v-11.859h-16.327v-4.628h38.087v4.781h-16.653v16.813h-16.814v16.463h-21.755v-16.652h-33.243v-4.938h16.303v-45.469h-16.279v-21.754h33.461v-16.403h4.938v16.273h28.254v-28.109h-11.731v16.256h-4.939v-16.255h-28.501c-8e-3 5.495-8e-3 10.721-8e-3 16.616z"/>
	<path d="m83.622 493.87h16.581v-67.142h16.633v-11.868h-16.382v-4.936h16.558v-16.803h33.425v-11.871h-33.182v-55.16h4.716v49.993h28.66v-16.581h33.412v-11.716h-16.375c-0.076-1.7-0.143-3.188-0.228-5.086h16.6v-45.254h-11.497v16.235h-21.531v-4.587h16.268v-16.424h21.577v49.73h16.759v5.086h-16.078v28.49h16.086v38.552h-16.101v11.817h44.841v-16.12h5.036v21.056h-54.823v-21.122h16.128v-28.67h-16.217v-16.736h-28.669v33.049h-33.609v33.609h-16.716v112.55h11.374v-33.08c1.766-0.101 3.157-0.18 4.934-0.282v67.049h16.79v16.813h16.813v16.82h33.593c0.085 1.769 0.152 3.159 0.238 4.938h-16.564v11.852h16.34v16.693h28.669v-16.249h21.627v4.529h-16.26v11.854h16.385v16.678h45.329v-28.275h-16.285v-38.407h4.579v33.234h16.797v16.814h33.464v4.937h-33.102v11.711h45.101v-33.107h4.937v16.308h45.451v-16.453h16.813v-16.813h16.649v-28.667h-66.739v-4.936h33.304v-16.642h4.937v16.337h28.657v-33.291h16.643v-28.669h-16.352v-38.549h16.367v-28.48h-45.228v16.586h-16.813v16.639h-16.43v28.511h32.868v5.087h-16.121v16.586h-5.262v-16.267h-16.457v-16.654h-16.764v-5.088h16.07v-28.488h-32.874v-38.497h4.431v32.873h28.489v-32.923h33.609v-16.812h16.759v-28.669h-32.919v-21.686h21.073v4.508h-16.133v11.696h32.933v38.546h-16.227v16.813h-16.824v16.757c-1.767 0.133-3.159 0.237-4.939 0.371v-16.578h-11.764v44.825h11.333v-16.28h16.811v-16.812h50.413v-33.587c1.769-0.092 3.16-0.164 4.84-0.251v88.77c-1.291 0.083-2.68 0.171-4.464 0.285v-16.57h-11.755v28.148h16.203v38.549h-16.217v45.353h11.408v-33.154h16.81v-67.509h16.946c1.46 0.11 2.92 0.22 4.653 0.351v4.585h-16.252v67.21h-16.847v33.47h-16.847v17.023h-16.848v16.673h-16.848v16.847h-50.266v16.617h-105.77v-16.304h-50.441v-16.847h-16.673v-16.848h-16.848v-16.673h-16.848v-16.848h-16.673v-33.644h-16.847v-50.263h-16.812v-5.187z"/>
	<path d="m609.11 1422.7v-16.621h28.501v16.255h4.939v-16.256h11.731v28.109h-28.254v-16.273h-4.938v16.403h-33.461v21.754h16.279v45.469h-16.303v4.938h33.243v16.652h21.755v-16.463h16.814v-16.813h16.653v-4.781h-38.087v4.628h16.327v11.859h-16.481v16.649h-11.873v-16.516h-16.813v-50.408h-16.629v-11.683h45.232v16.391h21.534c0.063-1.344 0.133-2.832 0.222-4.732h-16.605v-11.866h16.604v-16.607h28.339v33.039h5.262v-49.837h28.334v33.041h5.058v-37.807h-54.776v4.586h16.239v11.484h-28.142v-16.122h-33.612v-16.813h-16.76v-79.002h28.042v16.199h33.54v28.683h-32.969c-0.146 1.767-0.261 3.16-0.408 4.938h33.451v16.712h21.736c0.1-1.218 0.213-2.611 0.359-4.389h-16.581v-28.658h16.18c0.143-1.765 0.256-3.155 0.4-4.938h-16.656v-16.79h-16.825v-16.756c-1.767-0.135-3.159-0.241-4.939-0.376v16.578h-11.849v-16.26h-33.619v-16.768c-1.768-0.119-3.16-0.214-4.938-0.334v16.574h-28.658v-33.042c-1.765-0.117-3.153-0.209-4.938-0.327v16.663h-33.589v16.814h-33.509v21.754c1.293 0.071 2.684 0.147 4.461 0.244v-16.562h45.447v16.32h33.618v33.597c1.767 0.083 3.154 0.148 4.833 0.226v-38.405h-33.152v-16.815h-16.693v-11.747h28.242v16.399h33.473v79.061h-50.029v16.814h-16.814v16.655h-45.304v-45.152h16.348v-4.778h-21.454v16.345h-28.671v-33.326h-33.429v-28.667h33.185v-4.759h-38.126v71.71h21.33v-4.702h-16.39v-28.474h28.238v11.489h-16.364c-0.081 1.694-0.152 3.18-0.243 5.087h16.798v16.807h16.659v33.37c1.697 0.077 3.18 0.144 5.087 0.23v-33.4h11.866v33.236h33.262v50.233h16.814v16.814h16.83v33.548h5.042v-37.889h-16.28v-28.671h16.119v-38.481h-4.494v16.196h-16.57v5.089h16.115v11.696h-16.185v16.744h-11.803v-44.873h16.234v-16.826h50.35c0.135-1.767 0.242-3.159 0.379-4.939h-33.375v-11.766h61.62v11.332h-16.28v16.812h-33.612v50.415h-16.796c-0.087 1.77-0.155 3.161-0.242 4.94h33.353v11.852h-16.22v88.94h16.356v16.69h55.22v-21.335h-16.407v-16.673h-38.411v4.572h33.228v16.799h16.668v11.723h-44.96v-11.531h16.328v-4.937h-33.124v-45.296h28.179v11.554h-16.347v4.937h83.695v16.643h4.783v-21.437h-16.336v-11.873h49.933v-21.587h-4.656v16.356h-28.489v-11.583h16.537v-33.61h16.814v-16.621h28.474v28.251h-11.515v-16.227h-5.087v16.276h-16.567c-0.076 1.695-0.143 3.181-0.229 5.087h16.601v45.461h-16.443v16.428h-11.715v-16.075h-5.085v32.909h-16.636v16.769h-11.873v-32.897h-21.689v4.466h16.104v45.29h-16.168v16.753h-95.858v-66.597h-50.333v-28.683h32.978c0.143-1.767 0.255-3.16 0.398-4.938h-16.655v-16.79h-50.408v-16.814h-16.814v-16.718h-21.755v16.206h-28.561v-44.992h33.147v-16.819h16.69v-4.823h-21.313v16.385h-33.612v33.611h-16.678v21.618h4.559v-16.284h11.86v49.877h4.936v-16.283h45.314v28.278h-16.288v21.604h38.042v-38.058h-4.61v33.119h-28.502v-11.535h16.324v-38.551h-49.935v-11.873h33.334v-16.63h11.873v16.573h16.814v16.814h50.205v11.523h-16.248v38.551h16.088v45.484h-32.896v5.044h37.883v-16.343h16.752v-5.087h-16.101v-28.441h27.965v11.253h-16.119v5.084h16.177v50.234h50.342v11.804h-78.388v-11.289h16.156v-21.734c-1.226-0.097-2.619-0.207-4.397-0.348v16.58h-62.24v-16.252h-16.814v-16.816h-33.513v-11.771h78.455v11.395h-33.111c-0.09 1.765-0.161 3.151-0.247 4.835h38.299v-21.286h-16.344v-50.4c-1.767-0.078-3.154-0.139-4.938-0.217v50.155h-78.927v-28.091h11.43v16.253h4.937v-33.174h16.675v-4.827h-21.301v16.254h-28.671v-33.178h-16.681v-95.861h33.08v-4.939h-33.081v-11.856h16.42v-50.407h16.814v-16.661h11.715v61.772h-11.552v-33.14h-4.78v38.241h16.339v28.671h-33.141v38.382h4.666v-33.331h33.6v-16.635h45.468v33.357h50.215v28.516h-16.364c-0.08 1.698-0.15 3.187-0.24 5.087h16.606v11.668h-28.458v-16.44h-16.429v-11.715h32.87v-5.085h-49.72v-16.586h-5.262v16.273h-33.22v21.531h4.422v-16.068h45.285v16.118h16.814v16.815h50.408v16.813h16.752v28.684h-32.931v5.087h49.792v50.234h16.741v11.885h-16.152v5.017h71.479v-4.684h-49.793v-16.638h-16.815v-50.408h-16.814v-33.611h-16.814v-16.814h-16.814v-50.408h-50.408v-33.611h-50.293v-95.858h16.366v-16.819h33.483v-4.938h-16.265v-11.86h66.655v-4.937h-33.061v-11.728h78.508v11.464h-33.211v16.813h-33.464v55.196h38.202v-16.317h11.872v33.139h4.937v-16.341h28.494v28.192h-11.573v-16.36h-4.937v16.529h-16.803v16.638h-11.873v-33.351h-50.402v-67.022h-4.938v16.577h-33.423v4.938h33.185v28.657h-33.186v4.938h33.367v33.425h4.938v-16.383h45.274v45.028h-11.628v-16.402h-4.753v21.341h21.523v-16.588h16.814v-16.658h50.013v-5.087h-16.436v-33.431h-33.261v-16.598h-21.755v16.095h-28.617v-44.825h32.98v-16.815h33.611v-16.738h45.388v11.309h-16.171v21.738c1.248 0.09 2.64 0.19 4.418 0.318v-16.577h45.356v11.344h-16.239c-0.12 1.766-0.214 3.158-0.335 4.936h50.256v16.791h16.815v16.814h16.709v28.678h-16.318c-0.089 1.77-0.159 3.16-0.248 4.939h33.363v28.54h-11.407v-16.343c-1.765-0.078-3.152-0.139-4.936-0.217v16.561h-62.13v-11.419h16.244v-4.937h-33.041v-28.657h33.042v-4.938h-33.165v-16.677h-4.83v54.886h16.365v16.814h100.67v62.135h-28.256v-33.072h-4.938v49.87h-28.657v-33.074h-4.938v33.075h-45.454v-16.279h-4.811v38.02h4.548v-16.263h62.119v28.249h-16.406v16.814h-16.814v16.664h-45.468v-16.471h-33.449v-28.671h16.338v-21.755h-16.355v-45.394c11.038 5e-3 21.933 5e-3 33.394 5e-3z" fill="#FEFEFE"/>
</svg>
